PathFileType	4	(X/Y/Z)	RBDS09\RBDS09runT35.trc
DataRate	CameraRate	NumFrames	NumMarkers	Units	OrigDataRate	OrigDataStartFrame	OrigNumFrames
150.000000	150.000000	4	33	mm	150.000000	3937	4500
Frame#	Time	L.ASIS			L.Heel.Bottom			L.Heel.Lateral			L.Heel.Top			L.Iliac.Crest			L.MT1			L.MT5			L.PSIS			L.Shank.Bottom.Lateral			L.Shank.Bottom.Medial			L.Shank.Top.Lateral			L.Shank.Top.Medial			L.Thigh.Bottom.Lateral			L.Thigh.Bottom.Medial			L.Thigh.Top.Lateral			L.Thigh.Top.Medial			R.ASIS			R.ASY			R.Heel.Bottom			R.Heel.Lateral			R.Heel.Top			R.Iliac.Crest			R.MT1			R.MT5			R.PSIS			R.Shank.Bottom.Lateral			R.Shank.Bottom.Medial			R.Shank.Top.Lateral			R.Shank.Top.Medial			R.Thigh.Bottom.Lateral			R.Thigh.Bottom.Medial			R.Thigh.Top.Lateral			R.Thigh.Top.Medial			
		X1	Y1	Z1	X2	Y2	Z2	X3	Y3	Z3	X4	Y4	Z4	X5	Y5	Z5	X6	Y6	Z6	X7	Y7	Z7	X8	Y8	Z8	X9	Y9	Z9	X10	Y10	Z10	X11	Y11	Z11	X12	Y12	Z12	X13	Y13	Z13	X14	Y14	Z14	X15	Y15	Z15	X16	Y16	Z16	X17	Y17	Z17	X18	Y18	Z18	X19	Y19	Z19	X20	Y20	Z20	X21	Y21	Z21	X22	Y22	Z22	X23	Y23	Z23	X24	Y24	Z24	X25	Y25	Z25	X26	Y26	Z26	X27	Y27	Z27	X28	Y28	Z28	X29	Y29	Z29	X30	Y30	Z30	X31	Y31	Z31	X32	Y32	Z32	X33	Y33	Z33	

3938	26.24666666666667	2350.857389910841	979.44181204785	899.5825367423733	1730.74600160875	257.529651825344	978.2111997354367	1759.467707288864	236.8457138154089	933.5535175118416	1775.066470130747	277.8386656974022	970.0192200687123	2318.298248908582	1050.484551315937	875.5070183919541	1861.313541501347	87.38907771461093	1009.097510081542	1822.436225380611	106.3109800614969	907.3055740129789	2194.024225088402	1030.290635810642	989.6417347724963	1860.4087086839	315.1969608609704	908.9465175100485	1833.491561529664	334.542515479743	951.1968674792233	1898.72421473954	384.9742280311499	899.6443239310106	1872.305345784351	405.3826025970183	941.6540053522855	2109.063965723464	678.9370891161943	891.3667186969933	2074.065945381969	701.7712625580609	951.2067936192142	2148.218552199981	781.645236736372	878.3627788482596	2120.460327219123	801.3109239507997	938.9611052957832	2345.566147890952	998.0129503412176	1126.222239657733	928153509.9048871	-1302365459.609167	-3386694268.315772	2332.348445999498	120.6340530524964	1075.586745777481	2364.422683288751	135.4063758859285	1123.877241360706	2345.989500363222	167.6457663222507	1079.288300677905	2281.440637518306	1072.779948806183	1174.673237701605	2543.321390802305	124.3283666585672	1056.235990897557	2503.450084655597	104.8776102559803	1158.578175731788	2187.402644765998	1027.940567320444	1063.914835836904	2388.827204742227	265.8364901756632	1133.110800981564	2370.252283280779	272.2708187171934	1085.640463901666	2389.190813044504	349.9686864239533	1142.467520626933	2370.010687851507	352.6159270877321	1093.000656346145	2443.109876355574	647.5700535033379	1165.779537782895	2390.73481006039	608.5242544789317	1134.029666551048	2372.335215699456	730.7643642780837	1179.19907302225	2323.257158296909	694.8213259026062	1147.543938868781	
3939	26.25333333333333	2352.654330614126	981.2005004958215	899.8680300000686	1722.026132446932	273.2478515550244	975.4812136260002	1750.339128946071	251.0947120663459	931.3052454596631	1767.285063851775	291.6567571785933	967.6487386308885	2320.309210034468	1054.340334891125	876.25276171694	1845.960396537465	98.10317875700656	1008.832298392802	1808.551138513528	117.6165667334912	906.6896846226083	2195.368763682273	1032.262932639182	988.6525604226096	1853.833585303735	324.6488478486203	907.4157503753694	1827.133036068743	345.2165740885689	949.1551510047607	1894.532094946566	392.9531640932465	898.0552390198463	1868.400238561202	414.5600636182612	939.5985598579479	2111.137628153554	680.6056168757386	890.1087790903755	2075.326664365612	703.8802052873285	949.2964767809591	2150.730781197705	783.1298684784875	876.9525598485186	2122.13048627722	803.2492772806625	936.9849188383577	2346.01049970079	999.4572359054823	1126.188004438322	928867807.9305736	-1303369932.469073	-3389305631.937344	2352.333466888575	109.1830620806079	1072.556514484654	2383.921505862481	124.8524390048994	1120.885164771557	2363.31142844828	156.7567682433935	1077.008852452328	2281.511312522436	1074.701069356212	1174.009043677126	2562.5623234218	125.3213944025729	1051.751911620787	2524.659369031248	101.5236194303061	1154.048352555852	2188.435333093157	1029.613550286737	1062.955363916858	2400.739101143384	257.0434791366145	1131.476590285813	2381.334822219978	263.3084841272142	1084.276405644764	2396.277299928982	340.8855354553309	1142.233535357905	2376.444830292806	343.3941079976193	1092.998155680015	2437.100344408604	643.5239195723144	1166.270171608943	2384.421586639992	605.963213801636	1133.491683873228	2368.178419937507	728.4074911409305	1179.212250798582	2318.774112443654	693.7681417746638	1146.742925074092	
3940	26.26	2354.21814723698	982.699511678179	900.0985467076071	1713.853811371361	289.2613674279531	973.0701295050726	1741.653118086655	265.7644005468786	929.3253831592466	1759.886459637378	305.7896358636279	965.6394451170568	2321.357016369313	1057.680317311477	876.7872782560256	1831.145625348587	109.7655010600629	1008.689987150597	1795.153926206519	129.8771064878648	906.1672115137034	2196.401451364221	1033.601387036152	987.6683002829132	1847.912256640756	334.2779335155906	906.1150189328838	1821.567534477117	356.2468667505415	947.3212308031957	1891.283055292272	400.807877434113	896.6524284605556	1865.600340434489	423.7780813954604	937.7135948451772	2114.262286991607	680.7482823387207	888.8942212302869	2077.526374775585	704.2501747893499	947.4384740802559	2153.719100334685	783.2809840039295	875.5479503093993	2124.095467196533	803.7192563103808	934.9829602266885	2346.231352715146	1000.402084023364	1126.266405757558	929582472.329007	-1304374921.673975	-3391918337.568051	2370.60431645917	99.07077440966265	1068.931610703152	2401.564977980969	115.4834036807037	1117.432701549757	2379.048038553386	147.0147502276564	1074.195200842316	2281.167390735623	1075.706097101668	1173.446743373659	2579.576082973219	126.7765659656518	1047.701895973576	2543.43667947434	98.89210478176841	1149.707298147262	2189.1761507456	1030.642437337414	1061.99972106864	2411.100483973192	249.0321855881579	1129.417989598636	2391.098832657995	255.1296929242868	1082.394180013045	2402.076018497009	332.3930805061016	1141.439285992944	2381.80611655505	334.7513844470977	1092.359703856621	2430.749232840463	639.0978775606948	1166.829568824806	2377.911851563613	603.1571230715849	1132.710340952197	2363.658959536497	725.57952218949	1179.383817101156	2314.067271312309	692.3459276060888	1145.871681005678	
3941	26.26666666666667	2355.568546806675	983.8887905649011	900.2840200487502	1706.491604455215	305.6457134098192	971.0246421656565	1733.64114726089	280.916555408203	927.6311987540606	1753.162356189023	320.2713515991871	964.00989811921	2321.541485105056	1060.405109962456	877.08693927925	1816.979031846938	122.2380289506642	1008.533325649364	1782.337974780969	143.0550653894521	905.6382599247462	2197.157217751694	1034.296683103623	986.6816614066629	1842.775316515296	344.1159007730761	905.0182953267114	1816.9578956464	367.5955886369248	945.7155339054877	1889.043215321383	408.5840692946155	895.4552345264035	1863.985913349928	433.0180168152165	936.0497997812097	2118.326133510943	679.408879240659	887.7741972785028	2080.635273379395	702.8966342289134	945.7410877241815	2157.085820627366	782.1393295838972	874.2214371324106	2126.338716579275	802.7274025066005	933.0774154438285	2346.231705586157	1000.862207140752	1126.454065997571	930297503.1941175	-1305380427.356552	-3394532385.552639	2386.837860761113	90.20828894706381	1064.775787195008	2417.016544953403	107.187562508577	1113.591335293038	2392.911875045223	138.3611189667972	1070.899448481104	2280.484007434868	1075.844547913406	1173.003547993275	2594.219742134263	128.4116609199268	1044.246301549522	2559.500848449944	96.70636115075665	1145.695835832774	2189.6479369665	1031.044007168579	1061.041742504736	2419.669602837931	241.777191766964	1126.93164799732	2399.400246476593	247.6996132008983	1079.959496966695	2406.424985247959	324.525927443098	1139.992087367802	2386.030915597151	326.7062691654274	1090.959579612619	2424.208628323322	634.4595644668445	1167.379209296405	2371.324529167622	600.2100983429262	1131.723830221416	2358.900098140624	722.421718076464	1179.645711989497	2309.239266564963	690.651687248621	1144.941904871325	
